<svg width="280" height="324" viewBox="0 0 280 324" fill="none" xmlns="http://www.w3.org/2000/svg">
<path d="M270.147 300.32C270.617 299.69 269.977 300.51 269.807 300.7C269.287 301.29 268.727 301.85 268.147 302.4C266.127 304.3 264.177 305.7 261.657 307.12C253.547 311.71 243.937 312.85 234.807 311.46C227.477 310.34 220.407 307.8 213.777 304.52C204.677 300.02 196.687 293.95 188.367 288.21C175.457 279.29 161.737 270.97 146.927 265.6C139.937 263.06 131.847 260.65 124.327 261.85C121.387 262.32 116.637 264.56 118.747 268.31C120.807 271.99 126.957 272.26 130.567 271.99C139.367 271.33 147.797 266.81 155.197 262.32C165.927 255.8 175.807 247.84 185.087 239.4C195.917 229.56 205.987 218.87 215.217 207.52C224.397 196.25 232.827 184.29 239.807 171.53C245.947 160.31 251.187 148.27 253.527 135.63C254.097 132.53 254.607 128.73 252.617 126C251.097 123.92 248.487 123.33 246.037 123.51C242.977 123.73 239.947 124.73 237.107 125.82C229.787 128.63 222.957 132.68 216.537 137.15C206.957 143.8 198.137 151.53 189.907 159.78C178.777 170.94 168.707 183.12 159.417 195.85C153.817 203.51 148.517 211.39 143.467 219.43C137.827 228.42 132.307 237.57 127.487 247.03C119.207 263.27 113.567 280.61 107.157 297.63C106.297 299.91 105.407 302.17 104.387 304.38C103.907 305.44 103.397 306.49 102.807 307.49C102.647 307.76 102.297 308.32 102.207 308.43C102.117 308.54 102.007 308.64 101.917 308.76C101.747 308.97 101.817 308.88 101.777 308.87C101.687 308.83 103.077 308.92 102.547 308.78C102.727 308.83 102.917 309.07 103.067 309.13C103.147 309.16 103.077 309.27 103.077 309.1C103.077 308.94 102.977 308.7 102.947 308.54C102.907 308.37 102.887 308.2 102.857 308.03C102.787 307.66 102.807 307.72 102.817 307.8C102.717 306.96 102.657 306.12 102.637 305.27C102.487 300.37 103.137 295.18 103.797 290.58C104.847 283.28 106.267 276.03 107.807 268.82C109.737 259.82 111.897 250.88 114.177 241.96C116.817 231.68 119.627 221.45 122.567 211.25C125.737 200.27 129.047 189.33 132.497 178.43C136.067 167.14 139.787 155.89 143.657 144.69C147.457 133.67 151.407 122.7 155.537 111.8C159.447 101.48 163.507 91.2203 167.807 81.0503C171.657 71.9503 175.697 62.9103 180.037 54.0303C183.677 46.5803 187.537 39.2203 191.847 32.1403C195.127 26.7403 198.557 21.5703 202.737 17.0003C203.557 16.1003 204.417 15.2203 205.317 14.4003C205.727 14.0203 206.147 13.6503 206.577 13.3003C207.177 12.8003 207.037 12.9103 207.597 12.5003C208.357 11.9503 209.157 11.4403 209.997 11.0103C210.177 10.9203 210.357 10.8303 210.537 10.7503C210.977 10.5403 210.467 10.7603 210.837 10.6203C211.207 10.4803 211.587 10.3503 211.977 10.2403C212.167 10.1903 212.347 10.1503 212.537 10.1103C212.657 10.0803 213.187 10.0003 212.927 10.0403C212.677 10.0703 213.197 10.0203 213.317 10.0103C213.497 10.0003 213.677 10.0003 213.857 10.0003C214.037 10.0003 214.207 10.0203 214.387 10.0303C214.887 10.0603 214.187 10.0103 214.587 10.0603C214.727 10.0803 214.857 10.1303 214.997 10.1703C214.467 10.0003 215.127 10.3403 214.977 10.1703C214.777 9.94029 215.107 10.2903 215.147 10.3603C215.047 10.1803 215.097 10.2303 215.237 10.5403C215.447 10.9903 215.217 10.3903 215.317 10.7103C215.387 10.9103 215.447 11.1203 215.497 11.3303C215.547 11.5303 215.577 11.7303 215.607 11.9403C215.537 11.4903 215.627 12.2803 215.637 12.4303C215.667 13.0003 215.657 13.5703 215.637 14.1403C215.487 17.1803 214.747 20.3303 213.907 23.4803C212.687 28.1003 211.157 32.6303 209.527 37.1203C205.007 49.5703 199.617 61.7103 193.927 73.6603C186.787 88.6903 179.077 103.45 170.947 117.96C161.967 133.98 152.467 149.72 142.367 165.06C131.667 181.33 120.357 197.23 107.777 212.1C96.1773 225.81 83.5973 238.7 70.0973 250.55C59.8173 259.58 49.0073 268.01 37.6573 275.65C30.3273 280.59 22.7773 285.22 14.9573 289.35C12.9373 290.41 10.9073 291.45 8.84727 292.42C8.31727 292.67 7.77727 292.92 7.23727 293.16C7.02727 293.25 6.21727 293.6 6.98727 293.27C5.23727 294.01 6.00727 296.91 7.78727 296.16C10.8573 294.87 13.8273 293.34 16.7673 291.78C24.7073 287.57 32.3773 282.84 39.8173 277.8C51.1973 270.09 62.0673 261.6 72.3873 252.52C85.8873 240.65 98.4673 227.74 110.077 214.01C122.657 199.13 133.977 183.24 144.697 166.98C154.807 151.64 164.327 135.9 173.317 119.88C181.467 105.35 189.197 90.5703 196.357 75.5303C202.087 63.4803 207.527 51.2603 212.127 38.7303C214.937 31.0803 217.977 22.9403 218.597 14.7403C218.747 12.7703 218.777 10.4103 217.617 8.70029C216.567 7.15029 214.697 6.88029 212.957 7.04029C208.947 7.42029 205.497 10.0703 202.687 12.7603C198.427 16.8403 194.947 21.7403 191.747 26.6703C187.427 33.3103 183.627 40.2803 180.037 47.3403C175.667 55.9203 171.647 64.6703 167.807 73.5003C163.487 83.4403 159.397 93.4903 155.477 103.6C151.277 114.42 147.277 125.31 143.417 136.26C139.477 147.44 135.687 158.68 132.047 169.97C128.477 181.02 125.057 192.11 121.767 203.24C118.717 213.6 115.787 224.01 113.027 234.45C110.577 243.73 108.247 253.04 106.137 262.4C104.417 270.04 102.827 277.72 101.557 285.45C100.637 291.05 99.8173 296.72 99.6373 302.4C99.5773 304.23 99.5973 306.06 99.8273 307.87C99.9473 308.82 100.037 309.99 100.587 310.79C101.927 312.74 103.877 311.23 104.847 309.84C107.437 306.12 108.927 301.41 110.487 297.18C113.527 288.94 116.447 280.66 119.597 272.47C123.357 262.69 127.477 253.03 132.537 243.84C137.627 234.58 143.057 225.49 148.787 216.61C158.317 201.82 168.747 187.58 180.367 174.35C189.047 164.47 198.397 155.12 208.617 146.83C215.747 141.04 223.367 135.71 231.567 131.56C234.447 130.1 237.137 128.9 240.187 127.9C242.827 127.03 247.537 125.23 249.847 127.4C252.017 129.44 250.857 133.75 250.357 136.23C249.757 139.18 248.997 142.09 248.107 144.96C246.187 151.16 243.707 157.16 240.857 162.99C234.567 175.87 226.637 187.93 217.927 199.28C208.937 211.01 198.997 222.03 188.337 232.25C178.917 241.28 168.887 249.79 157.987 256.99C150.357 262.03 141.837 267.11 132.697 268.72C131.247 268.98 129.677 269.09 128.117 269.04C126.677 268.99 126.087 268.93 124.807 268.63C124.327 268.52 123.857 268.37 123.397 268.21C123.307 268.18 123.217 268.14 123.127 268.11C122.877 268.01 123.407 268.24 123.107 268.1C122.907 268.01 122.717 267.92 122.527 267.81C122.377 267.73 122.227 267.63 122.087 267.54C121.667 267.29 122.037 267.54 121.897 267.4C121.787 267.3 121.687 267.2 121.577 267.1C121.267 266.81 121.537 267.08 121.497 267.03C121.417 266.92 121.357 266.81 121.297 266.69C121.237 266.58 121.487 267.01 121.297 266.66C121.087 266.28 121.457 266.75 121.287 266.66C121.137 266.59 121.477 266.16 121.277 266.49C121.037 266.88 121.377 266.3 121.337 266.33C121.437 266.27 121.117 266.62 121.367 266.31C121.637 265.97 121.327 266.33 121.407 266.25C121.507 266.15 121.607 266.04 121.717 265.94C121.987 265.7 121.427 266.1 121.847 265.84C121.997 265.75 122.147 265.66 122.307 265.57C122.417 265.51 122.887 265.3 122.697 265.38C122.507 265.46 123.027 265.26 123.157 265.21C123.627 265.06 124.097 264.94 124.577 264.84C125.327 264.69 125.187 264.71 126.007 264.64C134.157 263.94 142.667 266.97 150.107 270C165.937 276.45 180.447 286 194.217 296C207.167 305.4 222.207 313.6 238.457 314.85C247.457 315.54 256.707 313.74 264.437 308.96C267.507 307.06 270.567 304.72 272.757 301.81C273.897 300.3 271.297 298.8 270.147 300.32Z" stroke="white" stroke-width="20" stroke-linejoin="round" mask="url(#path-1-inside-1_0_1)"/>
</svg>
